<svg id="Layer_2" data-name="Layer 2" xmlns="http://www.w3.org/2000/svg" viewBox="0 0 1000 1000"><defs><style>.cls-1{fill:#19233d;}.cls-2{fill:#1abeff;}</style></defs><path class="cls-1" d="M500,919.77A419.88,419.88,0,0,1,336.6,113.22,419.88,419.88,0,0,1,663.4,886.78,417.22,417.22,0,0,1,500,919.77Zm0-810.54c-215.47,0-390.77,175.3-390.77,390.77S284.53,890.77,500,890.77,890.77,715.47,890.77,500,715.47,109.23,500,109.23Z"/><path class="cls-1" d="M671.28,773.92H304a31.69,31.69,0,0,1-31.65-31.65V281.37A31.68,31.68,0,0,1,304,249.72h57.33a10.5,10.5,0,0,1,0,21H304a10.66,10.66,0,0,0-10.65,10.65v460.9A10.67,10.67,0,0,0,304,752.92H671.28a10.67,10.67,0,0,0,10.65-10.65v-142a10.5,10.5,0,0,1,21,0v142A31.69,31.69,0,0,1,671.28,773.92Z"/><path class="cls-1" d="M692.43,346.16a10.51,10.51,0,0,1-10.5-10.5V281.37a10.66,10.66,0,0,0-10.65-10.65H613.56a10.5,10.5,0,1,1,0-21h57.72a31.68,31.68,0,0,1,31.65,31.65v54.29A10.51,10.51,0,0,1,692.43,346.16Z"/><path class="cls-1" d="M650.77,357.12a10.5,10.5,0,0,1-10.5-10.5V325.05H613.56a10.5,10.5,0,0,1,0-21h29.9a17.83,17.83,0,0,1,17.81,17.81v24.76A10.5,10.5,0,0,1,650.77,357.12Z"/><path class="cls-1" d="M643.46,731.39H331.82A17.83,17.83,0,0,1,314,713.58V321.86a17.83,17.83,0,0,1,17.81-17.81h29.51a10.5,10.5,0,0,1,0,21H335V710.39H640.27V600.23a10.5,10.5,0,0,1,21,0V713.58A17.83,17.83,0,0,1,643.46,731.39Z"/><path class="cls-1" d="M574.72,325.05H400.56a10.5,10.5,0,0,1-10.5-10.5V271a32.3,32.3,0,0,1,32.27-32.27H438a54,54,0,0,1,99.27,0H553A32.3,32.3,0,0,1,585.22,271v43.54A10.5,10.5,0,0,1,574.72,325.05Zm-163.66-21H564.22V271A11.28,11.28,0,0,0,553,259.74H529.8a10.5,10.5,0,0,1-10.17-7.88,33,33,0,0,0-64,0,10.5,10.5,0,0,1-10.17,7.88H422.33A11.28,11.28,0,0,0,411.06,271Z"/><path class="cls-1" d="M589.92,397.77H385.36a10.5,10.5,0,0,1,0-21H589.92a10.5,10.5,0,0,1,0,21Z"/><path class="cls-1" d="M555.68,443.36H385.36a10.5,10.5,0,0,1,0-21H555.68a10.5,10.5,0,0,1,0,21Z"/><path class="cls-1" d="M518.68,513.15H385.36a10.5,10.5,0,0,1,0-21H518.68a10.5,10.5,0,0,1,0,21Z"/><path class="cls-1" d="M561.19,558.74H385.36a10.5,10.5,0,0,1,0-21H561.19a10.5,10.5,0,0,1,0,21Z"/><path class="cls-1" d="M574.72,626.53H385.36a10.5,10.5,0,0,1,0-21H574.72a10.5,10.5,0,0,1,0,21Z"/><path class="cls-1" d="M466.71,672.12H385.36a10.5,10.5,0,0,1,0-21h81.35a10.5,10.5,0,0,1,0,21Z"/><path class="cls-2" d="M673.71,442.92a10.47,10.47,0,0,1-6.79-2.49l-45.85-38.89a10.5,10.5,0,0,1,13.59-16l37.62,31.92,75-93.43a10.5,10.5,0,1,1,16.37,13.15L681.9,439a10.5,10.5,0,0,1-7.19,3.88C674.38,442.91,674,442.92,673.71,442.92Z"/><path class="cls-2" d="M675.37,551.42a10.55,10.55,0,0,1-6.79-2.49L622.73,510a10.5,10.5,0,0,1,13.59-16l37.62,31.91,75-93.42a10.5,10.5,0,1,1,16.37,13.15L683.56,547.49a10.48,10.48,0,0,1-7.19,3.88C676,551.4,675.71,551.42,675.37,551.42Z"/></svg>