<?xml version="1.0" encoding="utf-8"?>
<!-- Generator: Adobe Illustrator 24.3.0, SVG Export Plug-In . SVG Version: 6.00 Build 0)  -->
<svg version="1.1" id="Layer_1" xmlns="http://www.w3.org/2000/svg" xmlns:xlink="http://www.w3.org/1999/xlink" x="0px" y="0px"
	 viewBox="0 0 170 170" style="enable-background:new 0 0 170 170;" xml:space="preserve">
<style type="text/css">
	.st0{fill:#19233D;}
	.st1{fill:#1ABEFF;}
</style>
<g>
	<g>
		<path class="st0" d="M85,149.4c-35.5,0-64.4-28.9-64.4-64.4S49.5,20.6,85,20.6s64.4,28.9,64.4,64.4S120.5,149.4,85,149.4z
			 M85,26.3c-32.3,0-58.7,26.3-58.7,58.7s26.3,58.7,58.7,58.7s58.7-26.3,58.7-58.7S117.3,26.3,85,26.3z"/>
		<path class="st0" d="M85,127.4c-23.4,0-42.4-19-42.4-42.4s19-42.4,42.4-42.4s42.4,19,42.4,42.4S108.4,127.4,85,127.4z M85,48.3
			c-20.3,0-36.7,16.5-36.7,36.7s16.5,36.7,36.7,36.7s36.7-16.5,36.7-36.7S105.3,48.3,85,48.3z"/>
		<path class="st0" d="M85,116.5c-17.3,0-31.5-14.1-31.5-31.5S67.7,53.5,85,53.5s31.5,14.1,31.5,31.5S102.3,116.5,85,116.5z
			 M85,59.2c-14.2,0-25.8,11.6-25.8,25.8s11.6,25.8,25.8,25.8s25.8-11.6,25.8-25.8S99.2,59.2,85,59.2z"/>
		<path class="st1" d="M134.4,64.7c0.7-1,1.1-2.2,1.1-3.5c0-3.3-2.7-5.9-5.9-5.9c-0.1,0-0.2,0-0.2,0C119.8,41,103.5,31.6,85,31.6
			c-29.4,0-53.4,23.9-53.4,53.4s23.9,53.4,53.4,53.4s53.4-23.9,53.4-53.4C138.4,77.8,136.9,71,134.4,64.7z M85,132.7
			c-26.3,0-47.7-21.4-47.7-47.7S58.7,37.3,85,37.3c16.4,0,30.9,8.3,39.5,21c-0.5,0.9-0.8,1.9-0.8,3c0,3.1,2.5,5.7,5.5,5.9
			c2.2,5.5,3.5,11.6,3.5,17.9C132.7,111.3,111.3,132.7,85,132.7z"/>
	</g>
</g>
</svg>
