<?xml version="1.0" encoding="utf-8"?>
<!-- Generator: Adobe Illustrator 24.3.0, SVG Export Plug-In . SVG Version: 6.00 Build 0)  -->
<svg version="1.1" id="Layer_1" xmlns="http://www.w3.org/2000/svg" xmlns:xlink="http://www.w3.org/1999/xlink" x="0px" y="0px"
	 viewBox="0 0 579.9 132.8" style="enable-background:new 0 0 579.9 132.8;" xml:space="preserve">
<style type="text/css">
	.st0{fill:#19233D;}
	.st1{fill:#1ABEFF;}
</style>
<g>
	<g>
		<path class="st0" d="M63.6,47.7v51.9H45.2V47.7H16.8V32.1H92v15.6H63.6z"/>
		<path class="st0" d="M122.1,69.5V32.1h18.4v35.6c0,10.8,5.6,16.9,17.4,16.9c11.8,0,17.4-6.1,17.4-16.9V32.1h18.4v37.4
			c0,19.4-12.7,31.1-35.8,31.1C134.7,100.6,122.1,88.9,122.1,69.5z"/>
		<path class="st0" d="M245.3,99.6h-18.4V32.1h43.6c16.4,0,27.3,8.1,27.3,22.6c0,10-5.6,17.3-14.9,20.6l16.4,24.3h-21.1l-14.5-22.4
			h-18.3V99.6z M269.5,62.7c6.5,0,10.1-3,10.1-7.5c0-4.8-3.6-7.6-10.1-7.6h-24.3v15.1H269.5z"/>
		<path class="st0" d="M348.1,99.6h-18.4V32.1h18.4V99.6z"/>
		<path class="st0" d="M563.1,99.6h-16.3l-39.2-43.8v43.8h-18V32.1h18.4l37,41.5V32.1h18V99.6z"/>
	</g>
	<g>
		<path class="st0" d="M418.9,111.8c-25.1,0-45.4-20.4-45.4-45.4s20.4-45.4,45.4-45.4s45.4,20.4,45.4,45.4S444,111.8,418.9,111.8z
			 M418.9,25c-22.8,0-41.4,18.6-41.4,41.4s18.6,41.4,41.4,41.4s41.4-18.6,41.4-41.4S441.7,25,418.9,25z"/>
		<path class="st0" d="M418.9,96.3c-16.5,0-30-13.4-30-30s13.4-30,30-30s30,13.4,30,30S435.4,96.3,418.9,96.3z M418.9,40.4
			c-14.3,0-25.9,11.6-25.9,25.9s11.6,25.9,25.9,25.9s25.9-11.6,25.9-25.9S433.2,40.4,418.9,40.4z"/>
		<path class="st0" d="M418.9,88.6c-12.2,0-22.2-10-22.2-22.2s10-22.2,22.2-22.2s22.2,10,22.2,22.2S431.1,88.6,418.9,88.6z
			 M418.9,48.2c-10,0-18.2,8.2-18.2,18.2s8.2,18.2,18.2,18.2s18.2-8.2,18.2-18.2S428.9,48.2,418.9,48.2z"/>
		<path class="st1" d="M453.8,52c0.5-0.7,0.8-1.5,0.8-2.5c0-2.3-1.9-4.2-4.2-4.2c-0.1,0-0.1,0-0.2,0c-6.8-10.1-18.3-16.7-31.3-16.7
			c-20.8,0-37.7,16.9-37.7,37.7s16.9,37.7,37.7,37.7s37.7-16.9,37.7-37.7C456.6,61.3,455.6,56.5,453.8,52z M418.9,100.1
			c-18.6,0-33.7-15.1-33.7-33.7s15.1-33.7,33.7-33.7c11.6,0,21.8,5.9,27.9,14.8c-0.4,0.6-0.6,1.3-0.6,2.1c0,2.2,1.7,4,3.9,4.2
			c1.6,3.9,2.5,8.2,2.5,12.6C452.6,85,437.5,100.1,418.9,100.1z"/>
	</g>
</g>
</svg>
