<svg id="Layer_2" data-name="Layer 2" xmlns="http://www.w3.org/2000/svg" viewBox="0 0 1000 1000"><defs><style>.cls-1{fill:#19233d;}.cls-2{fill:#1abeff;}</style></defs><path class="cls-1" d="M500,919.77A419.88,419.88,0,0,1,336.6,113.22,419.88,419.88,0,0,1,663.4,886.78,417.22,417.22,0,0,1,500,919.77Zm0-810.54c-215.47,0-390.77,175.3-390.77,390.77S284.53,890.77,500,890.77,890.77,715.47,890.77,500,715.47,109.23,500,109.23Z"/><path class="cls-2" d="M380.81,675.9H350.19a32.48,32.48,0,0,1-32.44-32.43V612.85a32.48,32.48,0,0,1,32.44-32.44h30.62a32.47,32.47,0,0,1,32.44,32.44v30.62A32.47,32.47,0,0,1,380.81,675.9Zm-30.62-66.49a3.45,3.45,0,0,0-3.44,3.44v30.62a3.44,3.44,0,0,0,3.44,3.43h30.62a3.44,3.44,0,0,0,3.44-3.43V612.85a3.44,3.44,0,0,0-3.44-3.44Zm31.66-47.11h-33a30.82,30.82,0,0,1-30.68-30.18c-.23-14.15-.34-22.56-.34-25a13.39,13.39,0,0,1,.11-1.8l.3-2.39c.19-15.06,4.92-27.42,14.06-36.75,8.4-8.56,17.87-14.35,28.17-17.19a47.19,47.19,0,0,0,16.64-8.42c3.06-2.37,4.31-5.1,4.31-9.4,0-7-2.34-9.32-3.11-10.07-2.7-2.63-8.21-3.18-12.36-3.18-10.14,0-13.54,1.9-14.12,2.28a14.73,14.73,0,0,0-3.1,2.5,13.77,13.77,0,0,1-.79,1.75c-3.59,6.69-10.19,18.55-14,22.83l-.7.8c-3.4,3.87-9.09,10.35-20.37,10.35-7,0-15.34-1.91-25.49-5.84-22.26-8.53-33.57-20.86-33.57-36.61a48.67,48.67,0,0,1,3.41-17.59c1.82-4.7,8.73-20,14.25-28.18a107.57,107.57,0,0,1,18.74-21.29c7.37-6.39,17.12-12,29.81-17.08a112.72,112.72,0,0,1,42.27-7.73c32.51,0,59.57,10.72,80.41,31.86S474,402,474,430.14A96.32,96.32,0,0,1,466.59,468c-4.95,11.64-11.18,21.1-18.52,28.11-12.43,11.86-24,20-35.35,24.68q-.08,4.66-.19,11.35A30.83,30.83,0,0,1,381.85,562.3Zm-35-54.32c0,2.42.09,8.6.34,23.67a1.68,1.68,0,0,0,1.68,1.65h33a1.68,1.68,0,0,0,1.68-1.65c.27-15.28.32-20,.32-21.3A14.51,14.51,0,0,1,394,496.51l6.11-1.91c8.25-3.12,17.64-9.66,27.9-19.45,4.47-4.27,8.46-10.49,11.86-18.47A67.55,67.55,0,0,0,445,430.14c0-20.52-7.51-38.13-23-53.82S387.11,353.1,362.3,353.1a84,84,0,0,0-31.45,5.63c-9.52,3.83-16.8,7.9-21.64,12.09a78.78,78.78,0,0,0-13.66,15.57c-3.77,5.59-9.68,18.34-11.28,22.46a19.67,19.67,0,0,0-1.45,7.12c0,.75,2.67,4.82,15,9.55,6.72,2.6,10.89,3.5,13.31,3.78l.33-.37.73-.83c1.39-1.75,5.82-9.29,9.73-16.51,2.35-5.88,6.94-11,14-15.64,7.22-4.74,17.05-7,30.05-7,13.84,0,24.81,3.83,32.59,11.39s11.88,18.06,11.88,30.86c0,13.26-5.37,24.44-15.54,32.32a76.71,76.71,0,0,1-26.7,13.45c-5.37,1.49-10.33,4.61-15.17,9.54-3.89,4-5.78,9.66-5.78,17.4a15.53,15.53,0,0,1-.11,1.8Zm2.09-85.82Z"/><path class="cls-1" d="M677.68,344.89H543.76a14.51,14.51,0,0,1-14.5-14.5v-88a14.51,14.51,0,0,1,14.5-14.5H677.68a14.51,14.51,0,0,1,14.5,14.5v88A14.51,14.51,0,0,1,677.68,344.89Zm-119.42-29H663.18v-59H558.26Z"/><path class="cls-1" d="M677.68,487.29H543.76a14.51,14.51,0,0,1-14.5-14.5v-88a14.51,14.51,0,0,1,14.5-14.5H677.68a14.51,14.51,0,0,1,14.5,14.5v88A14.51,14.51,0,0,1,677.68,487.29Zm-119.42-29H663.18v-59H558.26Z"/><path class="cls-1" d="M677.68,629.69H543.76a14.51,14.51,0,0,1-14.5-14.5v-88a14.51,14.51,0,0,1,14.5-14.5H677.68a14.51,14.51,0,0,1,14.5,14.5v88A14.51,14.51,0,0,1,677.68,629.69Zm-119.42-29H663.18v-59H558.26Z"/><path class="cls-1" d="M677.68,772.09H543.76a14.51,14.51,0,0,1-14.5-14.5v-88a14.51,14.51,0,0,1,14.5-14.5H677.68a14.51,14.51,0,0,1,14.5,14.5v88A14.51,14.51,0,0,1,677.68,772.09Zm-119.42-29H663.18v-59H558.26Z"/></svg>