<svg id="Layer_2" data-name="Layer 2" xmlns="http://www.w3.org/2000/svg" viewBox="0 0 1000 1000"><defs><style>.cls-1{fill:#19233d;}.cls-2{fill:#1abeff;}</style></defs><path class="cls-1" d="M895.41,532.43h0l-267.31-.09a14.5,14.5,0,1,1,0-29h0l267.31.09a14.5,14.5,0,0,1,0,29Z"/><path class="cls-1" d="M708.19,642.17a14.49,14.49,0,0,1-11.36-5.48L609.48,526.86a14.5,14.5,0,0,1,0-18.05L696.83,399A14.5,14.5,0,1,1,719.53,417l-80.17,100.8,80.17,100.8a14.5,14.5,0,0,1-11.34,23.53Z"/><path class="cls-1" d="M509.86,919.77a419.88,419.88,0,0,1-163.4-806.55,420,420,0,0,1,541.89,205,14.5,14.5,0,1,1-26.14,12.57c-64.75-134.62-203.06-221.6-352.35-221.6-215.47,0-390.77,175.3-390.77,390.77s175.3,390.77,390.77,390.77c149.29,0,287.6-87,352.35-221.6a14.5,14.5,0,1,1,26.14,12.57,419.82,419.82,0,0,1-378.49,238Z"/><path class="cls-2" d="M600.86,402.12H406.46a14.5,14.5,0,1,1,0-29h194.4a14.5,14.5,0,0,1,0,29Z"/><path class="cls-2" d="M523.81,530.55H406.46a14.5,14.5,0,0,1,0-29H523.81a14.5,14.5,0,1,1,0,29Z"/><path class="cls-2" d="M620.83,662.56H406.46a14.5,14.5,0,0,1,0-29H620.83a14.5,14.5,0,0,1,0,29Z"/><path class="cls-1" d="M328.61,429.06H268.67a11.48,11.48,0,0,1-11.48-11.48V357.65a11.48,11.48,0,0,1,11.48-11.48h59.94a11.47,11.47,0,0,1,11.47,11.48v59.93A11.47,11.47,0,0,1,328.61,429.06Zm-48.46-22.95h37v-37h-37Z"/><path class="cls-1" d="M328.61,557.5H268.67A11.48,11.48,0,0,1,257.19,546V486.09a11.48,11.48,0,0,1,11.48-11.48h59.94a11.47,11.47,0,0,1,11.47,11.48V546A11.47,11.47,0,0,1,328.61,557.5Zm-48.46-23h37v-37h-37Z"/><path class="cls-1" d="M328.61,685.94H268.67a11.48,11.48,0,0,1-11.48-11.48V614.53a11.48,11.48,0,0,1,11.48-11.48h59.94a11.47,11.47,0,0,1,11.47,11.48v59.93A11.47,11.47,0,0,1,328.61,685.94Zm-48.46-23h37V626h-37Z"/></svg>